<?xml version="1.0" standalone="no"?>
<!DOCTYPE svg PUBLIC "-//W3C//DTD SVG 20010904//EN"
 "http://www.w3.org/TR/2001/REC-SVG-20010904/DTD/svg10.dtd">
<svg version="1.0" xmlns="http://www.w3.org/2000/svg"
 width="512.000000pt" height="512.000000pt" viewBox="0 0 512.000000 512.000000"
 preserveAspectRatio="xMidYMid meet">
<metadata>
Created by potrace 1.14, written by Peter Selinger 2001-2017
</metadata>
<g transform="translate(0.000000,512.000000) scale(0.100000,-0.100000)"
fill="#000000" stroke="none">
<path d="M799 4820 c-90 -31 -165 -109 -190 -199 -8 -29 -13 -115 -13 -241 l0
-196 -191 1 c-196 1 -235 -5 -249 -40 -3 -9 -6 -223 -6 -476 0 -446 1 -460 20
-479 22 -22 17 -21 275 -22 l151 0 0 -1317 c0 -1278 1 -1318 20 -1370 25 -71
82 -133 152 -168 l57 -28 1065 0 1065 1 47 21 c84 39 154 125 173 213 4 19 7
473 7 1007 l-1 973 32 1 c18 0 44 3 60 5 20 3 27 1 27 -11 0 -19 11 -21 70
-11 120 20 149 26 185 38 l40 14 2 -520 c0 -287 1 -794 2 -1127 l1 -606 563 1
562 1 1 685 1 684 28 21 c59 42 109 101 138 164 l31 66 2 238 c3 223 5 240 24
264 19 25 21 39 20 214 -2 195 -8 239 -50 323 -29 57 -76 108 -139 150 -83 56
-142 69 -321 70 l-155 2 -3 105 -2 106 34 24 c56 38 168 220 220 355 33 88 37
106 38 169 0 66 -22 113 -76 166 -25 24 -46 50 -46 58 0 7 -26 38 -58 70 -103
100 -278 169 -431 169 -170 0 -318 -72 -366 -177 -10 -24 -22 -38 -29 -34 -6
4 -99 7 -206 8 l-195 0 -2 175 c-1 96 -4 196 -7 222 -10 93 -82 189 -172 230
l-49 22 -1053 1 c-967 2 -1056 0 -1103 -15z m2925 -1071 c-1 -132 2 -184 14
-219 27 -79 73 -138 140 -177 28 -17 42 -32 43 -46 0 -12 2 -49 5 -82 l6 -60
-139 -1 c-76 0 -160 -4 -188 -8 -27 -5 -57 -9 -65 -11 -25 -3 -115 -19 -120
-20 -3 -1 -29 -5 -58 -10 -58 -8 -82 -25 -82 -57 0 -22 -1 -22 -53 12 -20 14
-40 35 -43 47 -13 49 -9 50 194 51 104 0 199 3 209 6 40 13 43 42 43 414 -1
196 -1 373 0 393 l0 36 48 -48 48 -47 -2 -173z"/>
</g>
</svg>
